<?xml version="1.0" encoding="UTF-8"?>
<svg id="Layer_11" data-name="Layer 11" xmlns="http://www.w3.org/2000/svg" viewBox="0 0 1440 895">
  <defs>
    <style>
      .cls-1 {
        fill: #570a70;
      }
    </style>
  </defs>
  <path class="cls-1" d="M842.61,329.3c-4.59-3.36-10.57-4.21-15.92-2.25l-39.23,14.37-76.11,27.89c-.43.16-.72.5-1.13.7-19.64,6.33-37.56,18.49-50.68,36.43-30.97,42.34-24.59,100.56,13.03,135.32,2.86,2.64,5.9,5.16,9.12,7.51,3.21,2.35,6.52,4.48,9.9,6.4,44.53,25.34,101.96,13.8,132.94-28.55,10.63-14.53,16.69-30.91,18.65-47.57,0,0,0,0,0,0-11.33,4.31-22.66,8.61-33.99,12.92l-64.39,23.43c-4.89,1.78-10.31-.74-12.09-5.64-.92-2.53-1.01-5.28-.27-7.87l21.39-74.07-35.51,12.92c-4.65,1.69-10.02-.13-12.26-4.54-2.68-5.28-.1-11.55,5.3-13.51l55.85-20.33c4.59-1.67,9.66.7,11.33,5.28,1.05,2.89,1.16,6.04.31,8.99l-21.23,73.5,44.94-16.36c13.98-4.95,27.97-9.9,41.95-14.85l3.23-73.94,1.82-41.72c.25-5.69-2.37-11.13-6.96-14.49Z"/>
</svg>